# xmcd
# Track frame offsets:
# 150
# 13089
# 27168
# 38208
# 50637
# 62985
# 74917
# 86825
# 97808
# 110570
# 123719
# 138274
# 152281
# 165778
#
# Disc length: 2329 seconds
# Revision: 0
# Processed by: cddbd v1.5.1PL2 Copyright (c) Steve Scherf et al.
# Submitted via: VisiTrax 2.9.10.228 - For more info visit www.synapsa.com
#
DISCID=bb09170e
DTITLE=Bill Monroe - The legend lives on vol 3
DYEAR=1900
DGENRE=Bluegrass
TTITLE0=I'm blue I'm lonesone
TTITLE1=My little Georgia rose
TTITLE2=I'm on my way to the old home
TTITLE3=Uncle Pen
TTITLE4=Lord proect my soul
TTITLE5=Rawhide
TTITLE6=Breakman's blues
TTITLE7=Sugar coated love
TTITLE8=Christmas time's a coming
TTITLE9=The first wippoorwill
TTITLE10=In the pines
TTITLE11=The little girl and the dreadful snake
TTITLE12=Memories of mother and dad
TTITLE13=Walking in Jerusalem
EXTD=
EXTT0=
EXTT1=
EXTT2=
EXTT3=
EXTT4=
EXTT5=
EXTT6=
EXTT7=
EXTT8=
EXTT9=
EXTT10=
EXTT11=
EXTT12=
EXTT13=
PLAYORDER=
